<svg width="470" height="470" viewBox="0 0 470 470" fill="none" xmlns="http://www.w3.org/2000/svg">
<path d="M470 0L370.883 57.869L470 115.59V0ZM470 146.434L370.883 88.566V204.156L470 146.434ZM470 177.131L370.883 234.853L470 292.722V177.132V177.131ZM470 323.419L370.883 265.844V381.434L470 323.42V323.419ZM470 354.409L370.883 412.131L470 470V354.41V354.409ZM346.426 0L247.309 57.869L346.426 115.591V0ZM346.426 146.434L247.309 88.566V204.156L346.426 146.434ZM346.426 177.131L247.309 234.853L346.426 292.722V177.132V177.131ZM346.426 323.419L247.309 265.844V381.434L346.426 323.419ZM346.426 354.409L247.309 412.131L346.426 470V354.41V354.409ZM222.69 57.87L123.574 0V115.59L222.691 57.869L222.69 57.87ZM222.69 88.567L123.573 146.435L222.69 204.157V88.567ZM222.69 234.854L123.573 177.132V292.722L222.69 234.854ZM222.69 265.844L123.573 323.42L222.69 381.435V265.845V265.844ZM222.69 412.132L123.573 354.41V470L222.69 412.132ZM99.117 57.87L0 0V115.59L99.117 57.87ZM99.117 88.567L0 146.434L99.117 204.156V88.567ZM99.117 234.854L0 177.131V292.721L99.117 234.853V234.854ZM99.117 265.844L0 323.42L99.117 381.435V265.845V265.844ZM99.117 412.132L0 354.41V470L99.117 412.132Z" fill="#006729" fill-opacity="0.05"/>
</svg>
