<svg width="18" height="15" viewBox="0 0 18 15" fill="none" xmlns="http://www.w3.org/2000/svg">
<path d="M6.30682 6.00852H16.5341C16.6278 6.00852 16.7045 5.93182 16.7045 5.83807V4.64489C16.7045 4.55114 16.6278 4.47443 16.5341 4.47443H6.30682C6.21307 4.47443 6.13636 4.55114 6.13636 4.64489V5.83807C6.13636 5.93182 6.21307 6.00852 6.30682 6.00852ZM6.13636 10.3551C6.13636 10.4489 6.21307 10.5256 6.30682 10.5256H16.5341C16.6278 10.5256 16.7045 10.4489 16.7045 10.3551V9.16193C16.7045 9.06818 16.6278 8.99148 16.5341 8.99148H6.30682C6.21307 8.99148 6.13636 9.06818 6.13636 9.16193V10.3551ZM16.875 0H0.170455C0.0767045 0 0 0.0767045 0 0.170455V1.36364C0 1.45739 0.0767045 1.53409 0.170455 1.53409H16.875C16.9688 1.53409 17.0455 1.45739 17.0455 1.36364V0.170455C17.0455 0.0767045 16.9688 0 16.875 0ZM16.875 13.4659H0.170455C0.0767045 13.4659 0 13.5426 0 13.6364V14.8295C0 14.9233 0.0767045 15 0.170455 15H16.875C16.9688 15 17.0455 14.9233 17.0455 14.8295V13.6364C17.0455 13.5426 16.9688 13.4659 16.875 13.4659ZM0.0724432 7.64702L3.4027 10.2699C3.52628 10.3679 3.70952 10.2805 3.70952 10.1229V4.87713C3.70952 4.71946 3.52841 4.6321 3.4027 4.73011L0.0724432 7.35298C0.0500502 7.37039 0.03193 7.39269 0.0194655 7.41817C0.00700101 7.44365 0.000521486 7.47164 0.000521486 7.5C0.000521486 7.52836 0.00700101 7.55635 0.0194655 7.58183C0.03193 7.60731 0.0500502 7.62961 0.0724432 7.64702Z" fill="#006729"/>
</svg>
