<svg width="1491" height="1651" viewBox="0 0 1491 1651" fill="none" xmlns="http://www.w3.org/2000/svg">
<g filter="url(#filter0_d_233_220)">
<rect x="224.388" y="448.338" width="373.088" height="219" rx="13" transform="rotate(-0.999998 224.388 448.338)" fill="white" shape-rendering="crispEdges"/>
<path d="M351.161 606.149L350.151 548.263L389.159 521.263L429.086 546.886L430.097 604.772L403.785 605.231L403.142 568.394L376.83 568.854L377.473 605.69L351.161 606.149ZM475.713 503.96L477.458 603.945L440.621 604.588L439.513 541.071L434.19 537.69L433.981 525.744L423.456 525.928L423.542 530.822L402.248 517.192L402.04 505.246L475.713 503.96ZM461.028 567.384L450.503 567.568L450.687 578.092L461.211 577.909L461.028 567.384ZM460.66 546.335L450.136 546.518L450.319 557.043L460.844 556.859L460.66 546.335ZM460.293 525.285L449.768 525.469L449.952 535.994L460.477 535.81L460.293 525.285Z" fill="#006729"/>
</g>
<g filter="url(#filter1_d_233_220)">
<rect x="222.36" y="1000.35" width="373.782" height="219" rx="13" transform="rotate(-0.999998 222.36 1000.35)" fill="white" shape-rendering="crispEdges"/>
<path d="M383.113 1107.56C396.928 1107.32 407.914 1095.94 407.673 1082.13C407.432 1068.31 396.055 1057.33 382.24 1057.57C368.425 1057.81 357.439 1069.18 357.68 1083C357.922 1096.81 369.298 1107.8 383.113 1107.56ZM400.378 1114.4L398.525 1114.43C393.922 1116.75 388.79 1118.18 383.3 1118.27C377.81 1118.37 372.653 1117.12 367.95 1114.97L366.097 1115C351.903 1115.25 340.588 1126.96 340.836 1141.16L340.948 1147.59C341.051 1153.5 345.933 1158.22 351.848 1158.11L416.123 1156.99C422.038 1156.89 426.752 1152.01 426.649 1146.09L426.537 1139.66C426.289 1125.47 414.572 1114.15 400.378 1114.4ZM447.389 1106.44C459.217 1106.23 468.647 1096.47 468.44 1084.64C468.234 1072.81 458.469 1063.38 446.641 1063.59C434.812 1063.79 425.383 1073.56 425.59 1085.39C425.796 1097.21 435.56 1106.64 447.389 1106.44ZM458.226 1113.39L457.378 1113.41C454.295 1114.53 451.026 1115.3 447.545 1115.36C444.063 1115.43 440.77 1114.77 437.649 1113.75L436.801 1113.77C432.248 1113.85 428.075 1115.24 424.43 1117.42C429.978 1123.19 433.528 1130.92 433.679 1139.54L433.828 1148.11C433.837 1148.6 433.733 1149.07 433.719 1149.54L473.133 1148.85C479.047 1148.75 483.762 1143.87 483.659 1137.95C483.417 1124.14 472.041 1113.15 458.226 1113.39Z" fill="#006729"/>
</g>
<g filter="url(#filter2_d_233_220)">
<rect x="116.728" y="728.251" width="374.7" height="219" rx="13" transform="rotate(-0.999998 116.728 728.251)" fill="white" shape-rendering="crispEdges"/>
<path d="M276.652 785.469L259.481 806.821L270.004 806.638L270.31 824.176L284.341 823.931L284.035 806.393L294.558 806.209L276.652 785.469ZM324.006 784.642C315.237 784.795 315.237 784.795 315.39 793.553L316.002 828.642C316.155 837.411 316.155 837.411 324.925 837.258L342.463 836.952C351.232 836.799 351.232 836.799 351.079 828.029L350.467 792.952C350.314 784.183 350.314 784.183 341.545 784.336L324.006 784.642ZM287.981 830.206C286.823 830.253 285.751 830.775 284.304 832.375L282.892 833.928L281.372 832.481C279.725 830.913 278.439 830.494 277.145 830.574C275.851 830.654 274.34 831.361 272.66 832.769L271.316 833.896L270.001 832.74C268.019 831.009 266.347 830.515 264.755 830.625C263.597 830.706 262.402 831.163 261.215 831.948L270.479 847.946C273.903 849.959 280.839 850.618 285.559 848.136L293.958 831.904C292.3 831.262 290.808 830.6 289.525 830.358C289.06 830.27 288.629 830.207 288.213 830.202C288.135 830.202 288.058 830.203 287.981 830.206ZM326.801 844.243L327.107 861.781L316.584 861.965L334.49 882.705L351.661 861.353L341.138 861.536L340.832 843.998L326.801 844.243ZM268.624 851.638L268.624 851.639C264.719 854.501 261.629 859.374 260.522 866.452C259.45 873.312 261.408 877.898 264.785 880.988C268.162 884.078 273.177 885.609 278.24 885.454C283.303 885.3 288.323 883.456 291.662 880.19C295.002 876.924 296.843 872.331 295.64 865.825C294.396 859.102 291.407 854.463 287.676 851.69C281.49 855.099 273.67 854.534 268.624 851.638Z" fill="#006729"/>
</g>
<g filter="url(#filter3_d_233_220)">
<rect x="558.877" y="715.215" width="373.965" height="219" rx="13" transform="rotate(-0.999998 558.877 715.215)" fill="white" shape-rendering="crispEdges"/>
<path d="M774.163 833.381L717.028 834.378L698.316 853.755L696.986 777.576C696.964 776.314 697.445 775.094 698.322 774.185C699.199 773.277 700.402 772.754 701.665 772.732L773.082 771.486C774.345 771.464 775.565 771.944 776.473 772.821C777.382 773.699 777.904 774.901 777.926 776.164L778.841 828.537C778.863 829.799 778.382 831.019 777.505 831.928C776.628 832.836 775.425 833.359 774.163 833.381ZM797.47 804.398L798.633 871.055L779.256 852.342L726.883 853.257C725.62 853.279 724.401 852.798 723.492 851.921C722.584 851.044 722.061 849.841 722.039 848.579L721.956 843.817L788.612 842.654L787.864 799.803L792.626 799.72C793.888 799.698 795.108 800.179 796.017 801.056C796.925 801.933 797.448 803.136 797.47 804.398ZM726.541 781.823C722.399 781.895 719.083 782.906 716.544 784.808C714.102 786.803 712.912 789.538 713.025 793.299L713.075 793.441L722.264 793.281C722.287 791.851 722.696 790.749 723.54 789.972C724.409 789.226 725.518 788.817 726.663 788.822C728.139 788.796 729.386 789.251 730.258 790.093C731.13 790.983 731.533 792.214 731.558 793.642C731.584 795.166 731.274 796.457 730.531 797.565C729.883 798.672 728.9 799.642 727.676 800.425C725.276 802.086 723.634 803.544 722.752 804.845C721.821 806.1 721.333 808.109 721.374 810.489L730.896 810.323C730.871 808.847 731.04 807.653 731.454 806.789C731.867 805.924 732.662 805.053 733.839 804.271C735.961 803.091 737.699 801.679 739.046 799.751C740.394 797.822 741.074 795.857 741.033 793.477C740.969 789.858 739.633 786.976 737.025 784.879C734.464 782.78 730.969 781.746 726.541 781.823ZM721.457 815.25L721.623 824.773L731.146 824.606L730.98 815.084L721.457 815.25ZM750.19 824.274L759.713 824.108L759.547 814.585L750.024 814.752L750.19 824.274ZM749.443 781.423L749.941 809.991L759.464 809.824L758.965 781.257L749.443 781.423Z" fill="#006729"/>
</g>
<g filter="url(#filter4_d_233_220)">
<rect x="670.388" y="436.338" width="373.088" height="219" rx="13" transform="rotate(-0.999998 670.388 436.338)" fill="white" shape-rendering="crispEdges"/>
<path d="M797.161 594.149L796.151 536.263L835.159 509.263L875.086 534.886L876.097 592.772L849.785 593.231L849.142 556.394L822.83 556.854L823.473 593.69L797.161 594.149ZM921.713 491.96L923.458 591.945L886.621 592.588L885.513 529.071L880.19 525.69L879.981 513.744L869.456 513.928L869.542 518.822L848.248 505.192L848.04 493.246L921.713 491.96ZM907.028 555.384L896.503 555.568L896.687 566.092L907.211 565.909L907.028 555.384ZM906.66 534.334L896.136 534.518L896.319 545.043L906.844 544.859L906.66 534.334ZM906.293 513.285L895.768 513.469L895.952 523.993L906.477 523.81L906.293 513.285Z" fill="#006729"/>
</g>
<g filter="url(#filter5_d_233_220)">
<rect x="668.36" y="988.348" width="373.782" height="219" rx="13" transform="rotate(-0.999998 668.36 988.348)" fill="white" shape-rendering="crispEdges"/>
<path d="M829.113 1095.56C842.928 1095.32 853.914 1083.94 853.673 1070.13C853.432 1056.31 842.055 1045.33 828.24 1045.57C814.425 1045.81 803.439 1057.18 803.68 1071C803.922 1084.81 815.298 1095.8 829.113 1095.56ZM846.378 1102.4L844.525 1102.43C839.922 1104.75 834.79 1106.18 829.3 1106.27C823.81 1106.37 818.653 1105.12 813.95 1102.97L812.097 1103C797.903 1103.25 786.588 1114.96 786.836 1129.16L786.948 1135.59C787.051 1141.5 791.933 1146.22 797.848 1146.11L862.123 1144.99C868.038 1144.89 872.752 1140 872.649 1134.09L872.537 1127.66C872.289 1113.47 860.572 1102.15 846.378 1102.4ZM893.389 1094.44C905.217 1094.23 914.647 1084.47 914.44 1072.64C914.234 1060.81 904.469 1051.38 892.641 1051.59C880.812 1051.79 871.383 1061.56 871.59 1073.39C871.796 1085.21 881.56 1094.64 893.389 1094.44ZM904.226 1101.39L903.378 1101.41C900.295 1102.53 897.026 1103.3 893.545 1103.36C890.063 1103.42 886.77 1102.77 883.649 1101.75L882.801 1101.77C878.248 1101.84 874.075 1103.23 870.43 1105.42C875.978 1111.19 879.528 1118.92 879.679 1127.54L879.828 1136.11C879.837 1136.6 879.733 1137.07 879.719 1137.54L919.133 1136.85C925.047 1136.75 929.762 1131.87 929.659 1125.95C929.417 1112.14 918.041 1101.15 904.226 1101.39Z" fill="#006729"/>
</g>
<g filter="url(#filter6_d_233_220)">
<rect x="1004.88" y="703.215" width="373.965" height="219" rx="13" transform="rotate(-0.999998 1004.88 703.215)" fill="white" shape-rendering="crispEdges"/>
<path d="M1220.16 821.381L1163.03 822.378L1144.32 841.755L1142.99 765.576C1142.96 764.314 1143.44 763.094 1144.32 762.185C1145.2 761.277 1146.4 760.754 1147.66 760.732L1219.08 759.485C1220.34 759.463 1221.56 759.944 1222.47 760.821C1223.38 761.699 1223.9 762.901 1223.93 764.164L1224.84 816.537C1224.86 817.799 1224.38 819.019 1223.5 819.928C1222.63 820.836 1221.43 821.359 1220.16 821.381ZM1243.47 792.398L1244.63 859.055L1225.26 840.342L1172.88 841.257C1171.62 841.279 1170.4 840.798 1169.49 839.921C1168.58 839.044 1168.06 837.841 1168.04 836.579L1167.96 831.817L1234.61 830.654L1233.86 787.803L1238.63 787.72C1239.89 787.698 1241.11 788.179 1242.02 789.056C1242.93 789.933 1243.45 791.135 1243.47 792.398ZM1172.54 769.823C1168.4 769.895 1165.08 770.906 1162.54 772.808C1160.1 774.803 1158.91 777.538 1159.03 781.299L1159.08 781.441L1168.26 781.28C1168.29 779.851 1168.7 778.749 1169.54 777.972C1170.41 777.225 1171.52 776.817 1172.66 776.822C1174.14 776.796 1175.39 777.251 1176.26 778.093C1177.13 778.983 1177.53 780.214 1177.56 781.642C1177.58 783.166 1177.27 784.457 1176.53 785.565C1175.88 786.672 1174.9 787.642 1173.68 788.425C1171.28 790.086 1169.63 791.544 1168.75 792.845C1167.82 794.1 1167.33 796.109 1167.37 798.489L1176.9 798.323C1176.87 796.847 1177.04 795.653 1177.45 794.789C1177.87 793.924 1178.66 793.053 1179.84 792.271C1181.96 791.091 1183.7 789.679 1185.05 787.75C1186.39 785.822 1187.07 783.857 1187.03 781.477C1186.97 777.858 1185.63 774.976 1183.02 772.879C1180.46 770.78 1176.97 769.746 1172.54 769.823ZM1167.46 803.25L1167.62 812.773L1177.15 812.606L1176.98 803.084L1167.46 803.25ZM1196.19 812.274L1205.71 812.108L1205.55 802.585L1196.02 802.752L1196.19 812.274ZM1195.44 769.423L1195.94 797.99L1205.46 797.824L1204.96 769.257L1195.44 769.423Z" fill="#006729"/>
</g>
<defs>
<filter id="filter0_d_233_220" x="205.388" y="422.827" width="414.853" height="263.478" filterUnits="userSpaceOnUse" color-interpolation-filters="sRGB">
<feFlood flood-opacity="0" result="BackgroundImageFix"/>
<feColorMatrix in="SourceAlpha" type="matrix" values="0 0 0 0 0 0 0 0 0 0 0 0 0 0 0 0 0 0 127 0" result="hardAlpha"/>
<feOffset/>
<feGaussianBlur stdDeviation="9.5"/>
<feComposite in2="hardAlpha" operator="out"/>
<feColorMatrix type="matrix" values="0 0 0 0 0 0 0 0 0 0 0 0 0 0 0 0 0 0 0.25 0"/>
<feBlend mode="normal" in2="BackgroundImageFix" result="effect1_dropShadow_233_220"/>
<feBlend mode="normal" in="SourceGraphic" in2="effect1_dropShadow_233_220" result="shape"/>
</filter>
<filter id="filter1_d_233_220" x="203.36" y="974.825" width="415.547" height="263.49" filterUnits="userSpaceOnUse" color-interpolation-filters="sRGB">
<feFlood flood-opacity="0" result="BackgroundImageFix"/>
<feColorMatrix in="SourceAlpha" type="matrix" values="0 0 0 0 0 0 0 0 0 0 0 0 0 0 0 0 0 0 127 0" result="hardAlpha"/>
<feOffset/>
<feGaussianBlur stdDeviation="9.5"/>
<feComposite in2="hardAlpha" operator="out"/>
<feColorMatrix type="matrix" values="0 0 0 0 0 0 0 0 0 0 0 0 0 0 0 0 0 0 0.25 0"/>
<feBlend mode="normal" in2="BackgroundImageFix" result="effect1_dropShadow_233_220"/>
<feBlend mode="normal" in="SourceGraphic" in2="effect1_dropShadow_233_220" result="shape"/>
</filter>
<filter id="filter2_d_233_220" x="97.728" y="702.712" width="416.465" height="263.506" filterUnits="userSpaceOnUse" color-interpolation-filters="sRGB">
<feFlood flood-opacity="0" result="BackgroundImageFix"/>
<feColorMatrix in="SourceAlpha" type="matrix" values="0 0 0 0 0 0 0 0 0 0 0 0 0 0 0 0 0 0 127 0" result="hardAlpha"/>
<feOffset/>
<feGaussianBlur stdDeviation="9.5"/>
<feComposite in2="hardAlpha" operator="out"/>
<feColorMatrix type="matrix" values="0 0 0 0 0 0 0 0 0 0 0 0 0 0 0 0 0 0 0.25 0"/>
<feBlend mode="normal" in2="BackgroundImageFix" result="effect1_dropShadow_233_220"/>
<feBlend mode="normal" in="SourceGraphic" in2="effect1_dropShadow_233_220" result="shape"/>
</filter>
<filter id="filter3_d_233_220" x="539.877" y="689.689" width="415.73" height="263.493" filterUnits="userSpaceOnUse" color-interpolation-filters="sRGB">
<feFlood flood-opacity="0" result="BackgroundImageFix"/>
<feColorMatrix in="SourceAlpha" type="matrix" values="0 0 0 0 0 0 0 0 0 0 0 0 0 0 0 0 0 0 127 0" result="hardAlpha"/>
<feOffset/>
<feGaussianBlur stdDeviation="9.5"/>
<feComposite in2="hardAlpha" operator="out"/>
<feColorMatrix type="matrix" values="0 0 0 0 0 0 0 0 0 0 0 0 0 0 0 0 0 0 0.25 0"/>
<feBlend mode="normal" in2="BackgroundImageFix" result="effect1_dropShadow_233_220"/>
<feBlend mode="normal" in="SourceGraphic" in2="effect1_dropShadow_233_220" result="shape"/>
</filter>
<filter id="filter4_d_233_220" x="651.388" y="410.827" width="414.853" height="263.478" filterUnits="userSpaceOnUse" color-interpolation-filters="sRGB">
<feFlood flood-opacity="0" result="BackgroundImageFix"/>
<feColorMatrix in="SourceAlpha" type="matrix" values="0 0 0 0 0 0 0 0 0 0 0 0 0 0 0 0 0 0 127 0" result="hardAlpha"/>
<feOffset/>
<feGaussianBlur stdDeviation="9.5"/>
<feComposite in2="hardAlpha" operator="out"/>
<feColorMatrix type="matrix" values="0 0 0 0 0 0 0 0 0 0 0 0 0 0 0 0 0 0 0.25 0"/>
<feBlend mode="normal" in2="BackgroundImageFix" result="effect1_dropShadow_233_220"/>
<feBlend mode="normal" in="SourceGraphic" in2="effect1_dropShadow_233_220" result="shape"/>
</filter>
<filter id="filter5_d_233_220" x="649.36" y="962.824" width="415.547" height="263.49" filterUnits="userSpaceOnUse" color-interpolation-filters="sRGB">
<feFlood flood-opacity="0" result="BackgroundImageFix"/>
<feColorMatrix in="SourceAlpha" type="matrix" values="0 0 0 0 0 0 0 0 0 0 0 0 0 0 0 0 0 0 127 0" result="hardAlpha"/>
<feOffset/>
<feGaussianBlur stdDeviation="9.5"/>
<feComposite in2="hardAlpha" operator="out"/>
<feColorMatrix type="matrix" values="0 0 0 0 0 0 0 0 0 0 0 0 0 0 0 0 0 0 0.25 0"/>
<feBlend mode="normal" in2="BackgroundImageFix" result="effect1_dropShadow_233_220"/>
<feBlend mode="normal" in="SourceGraphic" in2="effect1_dropShadow_233_220" result="shape"/>
</filter>
<filter id="filter6_d_233_220" x="985.877" y="677.689" width="415.73" height="263.493" filterUnits="userSpaceOnUse" color-interpolation-filters="sRGB">
<feFlood flood-opacity="0" result="BackgroundImageFix"/>
<feColorMatrix in="SourceAlpha" type="matrix" values="0 0 0 0 0 0 0 0 0 0 0 0 0 0 0 0 0 0 127 0" result="hardAlpha"/>
<feOffset/>
<feGaussianBlur stdDeviation="9.5"/>
<feComposite in2="hardAlpha" operator="out"/>
<feColorMatrix type="matrix" values="0 0 0 0 0 0 0 0 0 0 0 0 0 0 0 0 0 0 0.25 0"/>
<feBlend mode="normal" in2="BackgroundImageFix" result="effect1_dropShadow_233_220"/>
<feBlend mode="normal" in="SourceGraphic" in2="effect1_dropShadow_233_220" result="shape"/>
</filter>
</defs>
</svg>
